<svg width="45" height="45" viewBox="0 0 45 45" fill="none" xmlns="http://www.w3.org/2000/svg">
<path d="M0 23C0 10.8497 9.84974 1 22 1C34.1503 1 44 10.8497 44 23C44 35.1503 34.1503 45 22 45C9.84974 45 0 35.1503 0 23Z" fill="#F1F5F9"/>
<path d="M22 23.9167C24.5313 23.9167 26.5834 21.8646 26.5834 19.3333C26.5834 16.802 24.5313 14.75 22 14.75C19.4687 14.75 17.4167 16.802 17.4167 19.3333C17.4167 21.8646 19.4687 23.9167 22 23.9167ZM22 23.9167C23.9449 23.9167 25.8102 24.6893 27.1855 26.0646C28.5607 27.4398 29.3334 29.3051 29.3334 31.25M22 23.9167C20.0551 23.9167 18.1898 24.6893 16.8146 26.0646C15.4393 27.4398 14.6667 29.3051 14.6667 31.25" stroke="#62748E" stroke-width="2" stroke-linecap="round" stroke-linejoin="round"/>
<path d="M38.5 0.5C41.8137 0.5 44.5 3.18629 44.5 6.5C44.5 9.81371 41.8137 12.5 38.5 12.5C35.1863 12.5 32.5 9.81371 32.5 6.5C32.5 3.18629 35.1863 0.5 38.5 0.5Z" fill="#00C16A"/>
<path d="M38.5 0.5C41.8137 0.5 44.5 3.18629 44.5 6.5C44.5 9.81371 41.8137 12.5 38.5 12.5C35.1863 12.5 32.5 9.81371 32.5 6.5C32.5 3.18629 35.1863 0.5 38.5 0.5Z" stroke="white"/>
</svg>
